<svg width="230" height="44" viewBox="0 0 230 44" fill="none" xmlns="http://www.w3.org/2000/svg">
<path d="M15.28 33.76C13.4667 33.76 12.1333 33.68 11.28 33.52C10.4267 33.36 10 33.1733 10 32.96L11.6 29.48C12.2133 29.5867 13.7333 29.6933 16.16 29.8C18.6133 29.88 21.9733 29.92 26.24 29.92H27C28.1467 29.92 28.96 29.72 29.44 29.32C29.92 28.8933 30.16 28.1867 30.16 27.2V26.4C30.16 25.4667 29.96 24.8 29.56 24.4C29.1867 24 28.3333 23.8 27 23.8H17.72C15.0267 23.8 13.0667 23.3067 11.84 22.32C10.6133 21.3067 10 19.6667 10 17.4V16.76C10 15.5867 10.2133 14.5067 10.64 13.52C11.0933 12.5333 11.8533 11.7467 12.92 11.16C13.9867 10.5467 15.4533 10.24 17.32 10.24H28.2C30.0133 10.24 31.48 10.3333 32.6 10.52C33.72 10.7067 34.28 10.9067 34.28 11.12L33.48 14.48C32.7867 14.4 31.2133 14.32 28.76 14.24C26.3067 14.1333 23.0133 14.08 18.88 14.08L18.44 14.04C17.2133 14.04 16.3867 14.2933 15.96 14.8C15.5333 15.28 15.3067 15.8933 15.28 16.64V17.32C15.28 18.2 15.52 18.8667 16 19.32C16.5067 19.7467 17.3333 19.96 18.48 19.96H27.36C29.0667 19.96 30.52 20.1333 31.72 20.48C32.92 20.8267 33.84 21.4667 34.48 22.4C35.12 23.3067 35.44 24.6533 35.44 26.44V27.08C35.44 29.08 34.92 30.6933 33.88 31.92C32.8667 33.1467 31.0933 33.76 28.56 33.76H15.28Z" fill="#1061FF"/>
<path d="M38.4399 33.76V10.24H63.3199V14.08H43.7199V19.6H58.6799V23.56H43.7199V29.92H63.4799L65.0799 33.32C65.0799 33.4267 64.7199 33.5333 63.9999 33.64C63.2799 33.72 62.0399 33.76 60.2799 33.76H38.4399Z" fill="#1061FF"/>
<path d="M75.4001 33.76C73.5334 33.76 72.0667 33.4933 71.0001 32.96C69.9334 32.4267 69.1734 31.6267 68.7201 30.56C68.2934 29.4933 68.0801 28.1733 68.0801 26.6V17.36C68.0801 15.8133 68.2934 14.52 68.7201 13.48C69.1467 12.4133 69.8934 11.6133 70.9601 11.08C72.0267 10.52 73.5067 10.24 75.4001 10.24H87.0801C88.9467 10.24 90.4001 10.52 91.4401 11.08C92.5067 11.6133 93.2534 12.4133 93.6801 13.48C94.1334 14.52 94.3601 15.8133 94.3601 17.36V26.6C94.3601 28.9467 93.8401 30.7333 92.8001 31.96C91.7601 33.16 89.8534 33.76 87.0801 33.76H75.4001ZM76.5601 29.92H85.9601C86.9467 29.92 87.7067 29.6667 88.2401 29.16C88.8001 28.6533 89.0801 27.96 89.0801 27.08V16.88C89.0801 16.1067 88.8001 15.4533 88.2401 14.92C87.6801 14.36 86.9201 14.08 85.9601 14.08H76.5601C75.6001 14.08 74.8267 14.3333 74.2401 14.84C73.6534 15.3467 73.3601 16.0267 73.3601 16.88V27.08C73.3601 27.9867 73.6401 28.6933 74.2001 29.2C74.7867 29.68 75.5734 29.92 76.5601 29.92Z" fill="#1061FF"/>
<path d="M108.52 33.76L97.3601 10.28H102.96L110.48 26.48L111.56 29.36H111.92L112.96 26.48L120.56 10.28H126L125.36 12.68L114.92 33.76H108.52Z" fill="white"/>
<path d="M134.28 33.76C132.947 33.76 131.92 33.5867 131.2 33.24C130.48 32.8933 129.96 32.4533 129.64 31.92C129.347 31.3867 129.16 30.8267 129.08 30.24C129.027 29.6533 129 29.12 129 28.64V20.96C129 20.56 129.027 20.08 129.08 19.52C129.16 18.9333 129.347 18.36 129.64 17.8C129.96 17.24 130.48 16.7733 131.2 16.4C131.947 16.0267 132.973 15.84 134.28 15.84H142.88C144.64 15.84 146.013 16.0133 147 16.36C148.013 16.68 148.72 17.2133 149.12 17.96C149.547 18.7067 149.76 19.7067 149.76 20.96V26.88H142.76C140.36 26.88 138.4 26.8267 136.88 26.72C135.387 26.6133 134.387 26.5467 133.88 26.52V28.72C133.853 29.7867 134.493 30.32 135.8 30.32H137.84C139.28 30.32 140.68 30.3067 142.04 30.28C143.427 30.2267 144.693 30.1733 145.84 30.12C146.987 30.04 147.907 29.9733 148.6 29.92L150.2 32.52C150.2 33.3467 147.573 33.76 142.32 33.76H134.28ZM133.88 23.44H144.88V20.88C144.88 20.3467 144.813 19.9733 144.68 19.76C144.573 19.5467 144.227 19.4133 143.64 19.36C143.053 19.3067 142.053 19.28 140.64 19.28H135.8C134.52 19.28 133.88 19.8133 133.88 20.88V23.44Z" fill="white"/>
<path d="M153.2 33.76V15.84H156.48L158 16.64C158.693 16.2667 159.44 15.9733 160.24 15.76C161.04 15.5467 162.053 15.44 163.28 15.44C165.227 15.44 166.8 15.6533 168 16.08C169.227 16.5067 170.04 16.8267 170.44 17.04L169.04 20.52C168.72 20.36 168.187 20.16 167.44 19.92C166.72 19.6533 165.867 19.4133 164.88 19.2C163.893 18.9867 162.813 18.88 161.64 18.88H161.2C159.92 18.88 159.08 19.1333 158.68 19.64C158.307 20.1467 158.107 20.9867 158.08 22.16V33.76H153.2Z" fill="white"/>
<path d="M178.36 33.76C176.573 33.76 175.307 33.6667 174.56 33.48C173.813 33.2933 173.44 33.1067 173.44 32.92L174.64 29.92C175.413 30 176.827 30.0933 178.88 30.2C180.96 30.28 183.52 30.32 186.56 30.32H188.56C189.227 30.32 189.64 30.1467 189.8 29.8C189.987 29.4267 190.08 28.9333 190.08 28.32C190.08 27.7067 189.973 27.2133 189.76 26.84C189.573 26.4667 189.173 26.28 188.56 26.28H178.72C176.853 26.28 175.507 25.9333 174.68 25.24C173.853 24.52 173.44 23.4533 173.44 22.04V20.44C173.44 20.0667 173.48 19.6267 173.56 19.12C173.64 18.6133 173.84 18.1067 174.16 17.6C174.48 17.0933 175 16.68 175.72 16.36C176.44 16.0133 177.44 15.84 178.72 15.84H189.76C191.36 15.84 192.493 15.9333 193.16 16.12C193.827 16.3067 194.16 16.4933 194.16 16.68L193.76 19.68C192.987 19.6 191.56 19.52 189.48 19.44C187.4 19.3333 184.853 19.28 181.84 19.28H179.84C179.173 19.28 178.747 19.4667 178.56 19.84C178.4 20.1867 178.32 20.6 178.32 21.08C178.32 21.5867 178.4 22.0133 178.56 22.36C178.747 22.68 179.173 22.84 179.84 22.84H189.68C191.493 22.84 192.827 23.2133 193.68 23.96C194.533 24.7067 194.96 25.6533 194.96 26.8V29.16C194.96 29.64 194.92 30.1467 194.84 30.68C194.787 31.2133 194.6 31.72 194.28 32.2C193.96 32.6533 193.44 33.0267 192.72 33.32C192 33.6133 190.987 33.76 189.68 33.76H178.36Z" fill="white"/>
<path d="M203.24 33.76C201.907 33.76 200.88 33.5867 200.16 33.24C199.44 32.8933 198.92 32.4533 198.6 31.92C198.307 31.3867 198.12 30.8267 198.04 30.24C197.987 29.6533 197.96 29.12 197.96 28.64V20.96C197.96 20.56 197.987 20.08 198.04 19.52C198.12 18.9333 198.307 18.36 198.6 17.8C198.92 17.24 199.44 16.7733 200.16 16.4C200.907 16.0267 201.933 15.84 203.24 15.84H211.84C213.6 15.84 214.973 16.0133 215.96 16.36C216.973 16.68 217.68 17.2133 218.08 17.96C218.507 18.7067 218.72 19.7067 218.72 20.96V26.88H211.72C209.32 26.88 207.36 26.8267 205.84 26.72C204.347 26.6133 203.347 26.5467 202.84 26.52V28.72C202.813 29.7867 203.453 30.32 204.76 30.32H206.8C208.24 30.32 209.64 30.3067 211 30.28C212.387 30.2267 213.653 30.1733 214.8 30.12C215.947 30.04 216.867 29.9733 217.56 29.92L219.16 32.52C219.16 33.3467 216.533 33.76 211.28 33.76H203.24ZM202.84 23.44H213.84V20.88C213.84 20.3467 213.773 19.9733 213.64 19.76C213.533 19.5467 213.187 19.4133 212.6 19.36C212.013 19.3067 211.013 19.28 209.6 19.28H204.76C203.48 19.28 202.84 19.8133 202.84 20.88V23.44Z" fill="white"/>
</svg>
