<svg width="135" height="48" viewBox="0 0 135 48" fill="none" xmlns="http://www.w3.org/2000/svg">
<path d="M108.684 0.462036V0.495748C105.114 0.551003 102.714 1.19801 101.516 2.44863C100.118 3.83874 99.4189 5.95492 99.4189 8.80061V10.5178H95.1687V15.4496H99.4997V37.0125H107.239V15.4496H116.938V37.0125H124.674C124.674 37.0125 124.674 26.4906 124.674 20.1438C124.674 13.7969 124.674 11.625 124.674 11.625C124.674 4.97066 124.674 10.5178 124.674 10.5178H120.905H107.239V10.0286C107.202 8.73652 107.321 8.35792 107.593 7.75281C107.866 7.14769 108.61 6.84567 109.827 6.84567C109.829 6.84567 109.83 6.84007 109.833 6.83975H111.982V0.462036H108.684ZM117.054 0.462036V6.83975H127.952V17.454H134.714V0.462036H127.952H117.054ZM82.6367 0.63243V7.08339H90.5102V0.63243H82.6367ZM65.0368 3.06064V10.5178H60.8954V15.4991H65.0368V31.9603C65.0368 33.6285 65.472 34.8626 66.3434 35.664C67.6876 36.9231 70.1951 37.4961 73.8648 37.3809L77.542 37.2581V32.0336C77.2878 32.05 77.0271 32.0611 76.7643 32.0693C76.5004 32.0775 76.2516 32.0831 76.0157 32.0831C74.4356 32.0832 73.4921 31.9469 73.183 31.6771C72.8738 31.4072 72.7198 30.7248 72.7198 29.6291V15.4991H82.6367V37.0125H90.5102V10.5257H85.6181V10.5178H72.7198V3.06064H65.0368ZM47.813 9.68394C45.4337 9.68394 43.3807 10.2805 41.6552 11.4745C40.7106 12.145 39.8209 13.0625 38.9851 14.2236V10.2742H31.5477V47.5379H39.2306V33.6023C40.0482 34.7308 40.8829 35.5907 41.736 36.1788C43.2978 37.2419 45.2592 37.774 47.6212 37.774C51.3265 37.774 54.3563 36.5397 56.7076 34.0697C59.06 31.6002 60.2351 28.009 60.2351 23.2989C60.2351 18.8341 59.0363 15.4502 56.6387 13.1441C54.2228 10.8382 51.2823 9.68394 47.813 9.68394ZM0 10.2742V26.3907C0 29.449 0.425774 31.7628 1.27948 33.3329C2.80519 36.1788 5.76528 37.6017 10.1607 37.6017C11.6864 37.6017 13.0185 37.4218 14.1537 37.0621C15.2889 36.7023 16.4643 36.0313 17.6812 35.05C18.0808 34.7394 18.4265 34.3795 18.7171 33.9707C19.0077 33.5618 19.1892 33.3176 19.2618 33.2359V37.0125H26.8085V10.2742H18.935V24.8201C18.935 26.5373 18.6791 27.9208 18.1704 28.9676C17.1896 30.8974 15.3734 31.8613 12.7217 31.8613C10.6511 31.8613 9.26272 31.1826 8.55442 29.8251C8.15482 29.0565 7.95427 27.9117 7.95427 26.3907V10.2742H0ZM45.5791 15.7923C47.9218 15.7923 49.6149 16.5866 50.6587 18.173C51.7034 19.7594 52.2258 21.5829 52.2258 23.6436C52.2258 26.1458 51.6571 28.1482 50.5219 29.6528C49.3877 31.1575 47.7397 31.9108 45.5791 31.9108C44.0894 31.9108 42.798 31.5416 41.708 30.8056C39.8737 29.5463 38.9571 27.363 38.9571 24.2556C38.9571 22.293 39.2306 20.6747 39.7757 19.399C40.8291 16.995 42.7635 15.7923 45.5791 15.7923Z" fill="url(#paint0_linear_438_160)"/>
<defs>
<linearGradient id="paint0_linear_438_160" x1="61.3284" y1="66.7081" x2="126.833" y2="-20.4687" gradientUnits="userSpaceOnUse">
<stop stop-color="#097DFB"/>
<stop offset="1" stop-color="#7FBEFF"/>
</linearGradient>
</defs>
</svg>
